<svg width="1834" height="151" viewBox="0 0 1834 151" fill="none" xmlns="http://www.w3.org/2000/svg">
<path d="M10 25L12.2451 31.9098H19.5106L13.6327 36.1803L15.8779 43.0902L10 38.8197L4.12215 43.0902L6.36729 36.1803L0.489435 31.9098H7.75486L10 25Z" fill="#DB93B0"/>
<path d="M68 61L70.2451 67.9098H77.5106L71.6327 72.1803L73.8779 79.0902L68 74.8197L62.1221 79.0902L64.3673 72.1803L58.4894 67.9098H65.7549L68 61Z" fill="#DB93B0"/>
<path d="M203 5L205.245 11.9098H212.511L206.633 16.1803L208.878 23.0902L203 18.8197L197.122 23.0902L199.367 16.1803L193.489 11.9098H200.755L203 5Z" fill="#DB93B0"/>
<path d="M223 90L225.245 96.9098H232.511L226.633 101.18L228.878 108.09L223 103.82L217.122 108.09L219.367 101.18L213.489 96.9098H220.755L223 90Z" fill="#DB93B0"/>
<path d="M315 41L317.245 47.9098H324.511L318.633 52.1803L320.878 59.0902L315 54.8197L309.122 59.0902L311.367 52.1803L305.489 47.9098H312.755L315 41Z" fill="#DB93B0"/>
<path d="M412 100L414.245 106.91H421.511L415.633 111.18L417.878 118.09L412 113.82L406.122 118.09L408.367 111.18L402.489 106.91H409.755L412 100Z" fill="#DB93B0"/>
<path d="M454 31L456.245 37.9098H463.511L457.633 42.1803L459.878 49.0902L454 44.8197L448.122 49.0902L450.367 42.1803L444.489 37.9098H451.755L454 31Z" fill="#DB93B0"/>
<path d="M609 51L611.245 57.9098H618.511L612.633 62.1803L614.878 69.0902L609 64.8197L603.122 69.0902L605.367 62.1803L599.489 57.9098H606.755L609 51Z" fill="#DB93B0"/>
<path d="M569 0L571.245 6.90983H578.511L572.633 11.1803L574.878 18.0902L569 13.8197L563.122 18.0902L565.367 11.1803L559.489 6.90983H566.755L569 0Z" fill="#DB93B0"/>
<path d="M549 126L551.245 132.91H558.511L552.633 137.18L554.878 144.09L549 139.82L543.122 144.09L545.367 137.18L539.489 132.91H546.755L549 126Z" fill="#DB93B0"/>
<path d="M720 21L722.245 27.9098H729.511L723.633 32.1803L725.878 39.0902L720 34.8197L714.122 39.0902L716.367 32.1803L710.489 27.9098H717.755L720 21Z" fill="#DB93B0"/>
<path d="M748 100L750.245 106.91H757.511L751.633 111.18L753.878 118.09L748 113.82L742.122 118.09L744.367 111.18L738.489 106.91H745.755L748 100Z" fill="#DB93B0"/>
<path d="M840 46L842.245 52.9098H849.511L843.633 57.1803L845.878 64.0902L840 59.8197L834.122 64.0902L836.367 57.1803L830.489 52.9098H837.755L840 46Z" fill="#DB93B0"/>
<path d="M917 26L919.245 32.9098H926.511L920.633 37.1803L922.878 44.0902L917 39.8197L911.122 44.0902L913.367 37.1803L907.489 32.9098H914.755L917 26Z" fill="#DB93B0"/>
<path d="M975 66L977.245 72.9098H984.511L978.633 77.1803L980.878 84.0902L975 79.8197L969.122 84.0902L971.367 77.1803L965.489 72.9098H972.755L975 66Z" fill="#DB93B0"/>
<path d="M1110 10L1112.25 16.9098H1119.51L1113.63 21.1803L1115.88 28.0902L1110 23.8197L1104.12 28.0902L1106.37 21.1803L1100.49 16.9098H1107.75L1110 10Z" fill="#DB93B0"/>
<path d="M1130 95L1132.25 101.91H1139.51L1133.63 106.18L1135.88 113.09L1130 108.82L1124.12 113.09L1126.37 106.18L1120.49 101.91H1127.75L1130 95Z" fill="#DB93B0"/>
<path d="M1222 46L1224.25 52.9098H1231.51L1225.63 57.1803L1227.88 64.0902L1222 59.8197L1216.12 64.0902L1218.37 57.1803L1212.49 52.9098H1219.75L1222 46Z" fill="#DB93B0"/>
<path d="M1319 105L1321.25 111.91H1328.51L1322.63 116.18L1324.88 123.09L1319 118.82L1313.12 123.09L1315.37 116.18L1309.49 111.91H1316.75L1319 105Z" fill="#DB93B0"/>
<path d="M1361 36L1363.25 42.9098H1370.51L1364.63 47.1803L1366.88 54.0902L1361 49.8197L1355.12 54.0902L1357.37 47.1803L1351.49 42.9098H1358.75L1361 36Z" fill="#DB93B0"/>
<path d="M1516 56L1518.25 62.9098H1525.51L1519.63 67.1803L1521.88 74.0902L1516 69.8197L1510.12 74.0902L1512.37 67.1803L1506.49 62.9098H1513.75L1516 56Z" fill="#DB93B0"/>
<path d="M1476 5L1478.25 11.9098H1485.51L1479.63 16.1803L1481.88 23.0902L1476 18.8197L1470.12 23.0902L1472.37 16.1803L1466.49 11.9098H1473.75L1476 5Z" fill="#DB93B0"/>
<path d="M1456 131L1458.25 137.91H1465.51L1459.63 142.18L1461.88 149.09L1456 144.82L1450.12 149.09L1452.37 142.18L1446.49 137.91H1453.75L1456 131Z" fill="#DB93B0"/>
<path d="M1627 26L1629.25 32.9098H1636.51L1630.63 37.1803L1632.88 44.0902L1627 39.8197L1621.12 44.0902L1623.37 37.1803L1617.49 32.9098H1624.75L1627 26Z" fill="#DB93B0"/>
<path d="M1655 105L1657.25 111.91H1664.51L1658.63 116.18L1660.88 123.09L1655 118.82L1649.12 123.09L1651.37 116.18L1645.49 111.91H1652.75L1655 105Z" fill="#DB93B0"/>
<path d="M1747 51L1749.25 57.9098H1756.51L1750.63 62.1803L1752.88 69.0902L1747 64.8197L1741.12 69.0902L1743.37 62.1803L1737.49 57.9098H1744.75L1747 51Z" fill="#DB93B0"/>
<path d="M1824 31L1826.25 37.9098H1833.51L1827.63 42.1803L1829.88 49.0902L1824 44.8197L1818.12 49.0902L1820.37 42.1803L1814.49 37.9098H1821.75L1824 31Z" fill="#DB93B0"/>
<path d="M891 100L893.245 106.91H900.511L894.633 111.18L896.878 118.09L891 113.82L885.122 118.09L887.367 111.18L881.489 106.91H888.755L891 100Z" fill="#DB93B0"/>
</svg>
