<svg width="1920" height="274" viewBox="0 0 1920 274" fill="none" xmlns="http://www.w3.org/2000/svg">
<path fill-rule="evenodd" clip-rule="evenodd" d="M0 0L80 7.61111C160 15.2222 320 30.4444 480 60.8889C640 91.3333 800 137 960 159.833C1120 182.667 1280 182.667 1440 167.444C1600 152.222 1760 121.778 1840 106.556L1920 91.3333V274H1840C1760 274 1600 274 1440 274C1280 274 1120 274 960 274C800 274 640 274 480 274C320 274 160 274 80 274H0V0Z" fill="#84CAE7" fill-opacity="0.5"/>
<path fill-rule="evenodd" clip-rule="evenodd" d="M0 250.068L80 240.096C160 230.124 320 210.18 480 198.214C640 186.248 800 182.259 960 194.225C1120 206.191 1280 234.113 1440 240.096C1600 246.079 1760 230.124 1840 222.146L1920 214.169V274H1840C1760 274 1600 274 1440 274C1280 274 1120 274 960 274C800 274 640 274 480 274C320 274 160 274 80 274H0V250.068Z" fill="#25283D" fill-opacity="0.5"/>
</svg>
